<svg width="111" height="33" viewBox="0 0 111 33" fill="none" xmlns="http://www.w3.org/2000/svg">
<path d="M16.6362 33.0002C25.8242 33.0002 33.2724 25.6926 33.2724 16.6783C33.2724 7.66399 25.8242 0.356445 16.6362 0.356445C7.44829 0.356445 0 7.66399 0 16.6783C0 25.6926 7.44829 33.0002 16.6362 33.0002Z" fill="white"/>
<path d="M16.6848 8.72653C16.4308 8.73564 16.1776 8.69379 15.9407 8.60354C15.7037 8.51329 15.4881 8.37654 15.3069 8.20166C15.1328 8.03411 14.9955 7.83337 14.9035 7.6118C14.8115 7.39024 14.7667 7.15254 14.7719 6.91334C14.7702 6.67462 14.8166 6.43793 14.9084 6.21684C15.0002 5.99576 15.1356 5.79464 15.3069 5.62503C15.483 5.44139 15.697 5.29674 15.9346 5.20074C16.1722 5.10474 16.428 5.0596 16.6848 5.06835C16.9349 5.05634 17.1845 5.10021 17.4148 5.19664C17.6451 5.29307 17.85 5.43955 18.0142 5.62503C18.3337 5.98035 18.507 6.43956 18.5005 6.91334C18.5135 7.38819 18.3393 7.84966 18.0142 8.20166C17.8448 8.3787 17.6381 8.51737 17.4085 8.60802C17.179 8.69867 16.932 8.73911 16.6848 8.72653ZM18.079 11.1441V27.6537H15.2388V11.1346L18.079 11.1441Z" fill="#13191E"/>
<path d="M42.4326 19.8238V31.8958H38.2598V0.918945H47.4776C51.0636 0.918945 53.8487 1.6474 55.833 3.10431C57.8173 4.56122 58.804 6.81339 58.7932 9.86082C58.8335 11.41 58.5408 12.9502 57.934 14.3811C57.4014 15.5952 56.5757 16.664 55.5282 17.4953C54.435 18.3352 53.1732 18.939 51.8255 19.2671C50.2845 19.6546 48.6987 19.8439 47.108 19.8302L42.4326 19.8238ZM42.4326 4.59622V16.1465H47.108C48.1326 16.1577 49.1546 16.0412 50.1493 15.7998C51.0021 15.5984 51.8048 15.2306 52.5097 14.7183C53.1817 14.2151 53.7127 13.5529 54.053 12.7937C54.4413 11.8885 54.6292 10.9126 54.6042 9.9308C54.6042 8.05612 53.9871 6.69994 52.7528 5.86227C51.5186 5.02459 49.7548 4.60682 47.4614 4.60894L42.4326 4.59622Z" fill="white"/>
<path d="M99.1825 32.3286C98.0296 32.3324 96.8785 32.2377 95.7424 32.0455C94.7304 31.8755 93.7299 31.645 92.7465 31.3552C91.9095 31.112 91.0976 30.7926 90.3213 30.4009C89.7139 30.1032 89.1373 29.7484 88.5996 29.3416L89.2481 25.448C89.7821 25.8552 90.3505 26.217 90.947 26.5296C92.541 27.3854 94.2586 27.9979 96.0407 28.346C97.0698 28.5568 98.1182 28.6634 99.1695 28.6641C101.463 28.6641 103.293 28.2399 104.659 27.3916C106.025 26.5434 106.709 25.2529 106.711 23.5203C106.74 22.7775 106.572 22.04 106.225 21.3795C105.881 20.7974 105.396 20.307 104.814 19.9512C104.092 19.5175 103.314 19.1825 102.499 18.9556C101.572 18.682 100.491 18.3872 99.257 18.0712C98.0228 17.7552 96.7886 17.3947 95.5543 16.9897C94.3738 16.6155 93.2528 16.0801 92.2245 15.3992C91.2506 14.7482 90.4375 13.8917 89.8446 12.8925C89.2416 11.8809 88.94 10.5969 88.94 9.04028C88.94 6.3873 89.8803 4.30373 91.7608 2.78956C93.6414 1.27539 96.4935 0.518301 100.317 0.518301C101.394 0.5099 102.47 0.574736 103.537 0.712344C104.374 0.810188 105.205 0.958921 106.024 1.15769C106.656 1.32377 107.275 1.53644 107.875 1.79389C108.407 2.02611 108.848 2.24242 109.243 2.4301L108.708 6.36185C107.576 5.65677 106.344 5.12074 105.051 4.77134C103.515 4.35304 101.927 4.14956 100.333 4.16694C99.1857 4.14437 98.0391 4.2511 96.9161 4.48505C96.1162 4.64982 95.3558 4.96293 94.6757 5.40754C94.1328 5.77678 93.7052 6.28666 93.4404 6.88036C93.1773 7.49989 93.046 8.16561 93.0545 8.83669C93.0255 9.59992 93.2324 10.3539 93.6479 10.9998C94.0624 11.5911 94.6049 12.0853 95.2366 12.4472C95.9499 12.8611 96.7121 13.188 97.5062 13.4206C98.3578 13.6814 99.2549 13.9126 100.197 14.114C101.434 14.4321 102.698 14.7714 103.991 15.132C105.224 15.4667 106.398 15.9837 107.473 16.6652C108.501 17.3302 109.367 18.2101 110.008 19.2418C110.67 20.3022 111.001 21.6647 111.001 23.3295C111.063 24.6977 110.763 26.0585 110.129 27.279C109.496 28.4994 108.55 29.5378 107.385 30.2927C106.239 31.0386 104.96 31.5673 103.615 31.8514C102.16 32.1727 100.673 32.3328 99.1825 32.3286Z" fill="white"/>
<path d="M85.8336 19.1656C85.8787 21.2539 85.5798 23.3357 84.9485 25.3305C84.447 26.8965 83.6026 28.3362 82.4746 29.5485C81.427 30.6356 80.1329 31.4649 78.6973 31.9693C75.5904 33.0083 72.2201 33.0083 69.1131 31.9693C67.6772 31.4657 66.3829 30.6362 65.3358 29.5485C64.205 28.3344 63.3536 26.8958 62.8393 25.3305C62.1919 23.3387 61.8841 21.2558 61.9282 19.1656V13.5829C61.883 11.493 62.1898 9.41004 62.836 7.4181C63.3504 5.85274 64.2018 4.41421 65.3326 3.20005C66.3796 2.11235 67.6739 1.28288 69.1099 0.779286C72.2168 -0.259762 75.5871 -0.259762 78.6941 0.779286C80.1297 1.28364 81.4238 2.113 82.4714 3.20005C83.6006 4.41211 84.446 5.85174 84.9485 7.4181C85.5798 9.41291 85.8787 11.4946 85.8336 13.5829V19.1656ZM81.7321 13.5829C81.7635 12.0227 81.5781 10.4656 81.1809 8.95453C80.8845 7.82242 80.3536 6.76232 79.6214 5.8403C78.9732 5.05173 78.1227 4.44674 77.1572 4.08756C75.0504 3.36657 72.7568 3.36657 70.65 4.08756C69.681 4.45033 68.8251 5.0544 68.1664 5.8403C67.4204 6.75692 66.8811 7.81836 66.5841 8.95453C66.187 10.4656 66.0015 12.0227 66.0329 13.5829V19.1656C66.0015 20.7258 66.187 22.283 66.5841 23.794C66.8805 24.9262 67.4114 25.9862 68.1437 26.9083C68.7955 27.7013 69.6536 28.3069 70.6273 28.661C71.678 29.0326 72.7884 29.2157 73.9052 29.2018C75.0104 29.2157 76.1091 29.0325 77.1475 28.661C78.1136 28.3031 78.9645 27.6979 79.6117 26.9083C80.3439 25.9862 80.8748 24.9262 81.1712 23.794C81.5684 22.283 81.7538 20.7258 81.7224 19.1656L81.7321 13.5829Z" fill="white"/>
</svg>
